<?xml version="1.0" standalone="no"?><!DOCTYPE svg PUBLIC "-//W3C//DTD SVG 1.1//EN" "http://www.w3.org/Graphics/SVG/1.1/DTD/svg11.dtd"><svg t="1583671869414" class="icon" viewBox="0 0 1024 1024" version="1.1" xmlns="http://www.w3.org/2000/svg" p-id="16048" xmlns:xlink="http://www.w3.org/1999/xlink" width="200" height="200"><defs><style type="text/css"></style></defs><path d="M512 455.111111C386.844444 455.111111 284.444444 352.711111 284.444444 227.555556c0-34.133333 22.755556-56.888889 56.888889-56.888889s56.888889 22.755556 56.888889 56.888889c0 62.577778 51.2 113.777778 113.777778 113.777777s113.777778-51.2 113.777778-113.777777c0-34.133333 22.755556-56.888889 56.888889-56.888889s56.888889 22.755556 56.888889 56.888889c0 125.155556-102.4 227.555556-227.555556 227.555555z" p-id="16049" fill="#e73286"></path><path d="M796.444444 1024H227.555556c-96.711111 0-170.666667-73.955556-170.666667-170.666667V170.666667c0-96.711111 73.955556-170.666667 170.666667-170.666667h568.888888c96.711111 0 170.666667 73.955556 170.666667 170.666667v682.666666c0 96.711111-73.955556 170.666667-170.666667 170.666667zM227.555556 113.777778c-34.133333 0-56.888889 22.755556-56.888889 56.888889v682.666666c0 34.133333 22.755556 56.888889 56.888889 56.888889h568.888888c34.133333 0 56.888889-22.755556 56.888889-56.888889V170.666667c0-34.133333-22.755556-56.888889-56.888889-56.888889H227.555556z" p-id="16050" fill="#e73286"></path><path d="M625.777778 796.444444H398.222222c-34.133333 0-56.888889-22.755556-56.888889-56.888888s22.755556-56.888889 56.888889-56.888889h227.555556c34.133333 0 56.888889 22.755556 56.888889 56.888889s-22.755556 56.888889-56.888889 56.888888z" p-id="16051" fill="#e73286"></path></svg>